<?xml version="1.0" encoding="UTF-8" standalone="no"?>
<!-- Created with Inkscape (http://www.inkscape.org/) -->

<svg
   width="65"
   height="65"
   viewBox="0 0 65 65"
   version="1.1"
   id="svg5"
   inkscape:version="1.2.2 (732a01da63, 2022-12-09)"
   sodipodi:docname="pause_icon.svg"
   inkscape:export-filename="..\Images\Icons\pause_icon.png"
   inkscape:export-xdpi="96"
   inkscape:export-ydpi="96"
   xmlns:inkscape="http://www.inkscape.org/namespaces/inkscape"
   xmlns:sodipodi="http://sodipodi.sourceforge.net/DTD/sodipodi-0.dtd"
   xmlns="http://www.w3.org/2000/svg"
   xmlns:svg="http://www.w3.org/2000/svg">
  <sodipodi:namedview
     id="namedview7"
     pagecolor="#ffffff"
     bordercolor="#000000"
     borderopacity="0.25"
     inkscape:showpageshadow="2"
     inkscape:pageopacity="0.0"
     inkscape:pagecheckerboard="0"
     inkscape:deskcolor="#d1d1d1"
     inkscape:document-units="px"
     showgrid="false"
     inkscape:zoom="1"
     inkscape:cx="32"
     inkscape:cy="33.5"
     inkscape:window-width="1920"
     inkscape:window-height="1001"
     inkscape:window-x="-9"
     inkscape:window-y="-9"
     inkscape:window-maximized="1"
     inkscape:current-layer="layer1" />
  <defs
     id="defs2" />
  <g
     inkscape:label="Layer 1"
     inkscape:groupmode="layer"
     id="layer1">
    <path
       id="path1170"
       style="fill:#ff7f2a;stroke:#000000"
       d="M 15.244131,0.49413175 C 6.991861,0.50003175 0.49999,6.9918626 0.49413,15.244131 v 34.51186 c 0.0059,8.247779 6.497731,14.744 14.750001,14.749855 l 34.511718,2.2e-5 c 8.25227,-0.0059 14.744141,-6.497607 14.750001,-14.749877 l 2e-5,-34.511859 C 64.49999,6.9918626 58.008119,0.49999175 49.755849,0.49413175 Z"
       sodipodi:nodetypes="ccccccccc" />
    <g
       id="g2105"
       transform="translate(0.58004)">
      <path
         id="rect252"
         style="fill:#ffffff;stroke:#000000;stroke-width:2"
         d="m 16.781144,15.646767 h 9.605914 v 33.706466 h -9.605914 z" />
      <path
         id="rect252-4"
         style="fill:#ffffff;stroke:#000000;stroke-width:2"
         d="m 37.452862,15.646767 h 9.605914 v 33.706466 h -9.605914 z" />
    </g>
    <g
       id="g2112">
      <circle
         style="fill:#999999;stroke:#000000;stroke-width:0;stroke-dasharray:none"
         id="path492"
         cx="50.245018"
         cy="50.245018"
         r="10.245018" />
      <g
         aria-label="P"
         id="text1493"
         style="font-size:18.6667px;fill:#ffffff;stroke:#000000;stroke-width:0">
        <g
           id="path1555">
          <path
             style="color:#000000;stroke:none;-inkscape-stroke:none"
             d="m 54.683828,47.560769 q 0,0.902345 -0.319011,1.677086 -0.309896,0.765627 -0.875002,1.330732 -0.701824,0.701824 -1.658857,1.057293 -0.957033,0.346355 -2.415369,0.346355 h -1.80469 v 5.058603 H 45.806208 V 43.459199 h 3.682298 q 1.221356,0 2.069014,0.209636 0.847658,0.200521 1.503909,0.638022 0.774741,0.519532 1.194013,1.294273 0.428386,0.774741 0.428386,1.959639 z m -1.877608,0.04557 q 0,-0.701824 -0.246094,-1.221357 -0.246094,-0.519532 -0.747397,-0.847657 -0.437501,-0.282553 -1.002606,-0.401043 -0.555991,-0.127604 -1.412763,-0.127604 h -1.786461 v 5.423187 h 1.522138 q 1.093752,0 1.777347,-0.191407 0.683595,-0.200521 1.111981,-0.628907 0.428386,-0.437501 0.601563,-0.920575 0.182292,-0.483074 0.182292,-1.084637 z"
             id="path1607" />
          <path
             style="color:#000000;fill:#ffffff;stroke:none;-inkscape-stroke:none"
             d="m 54.683828,47.560769 c 0,0.601563 -0.106337,1.160593 -0.319011,1.677086 -0.206597,0.510417 -0.498265,0.953996 -0.875002,1.330732 -0.467882,0.467882 -1.020836,0.820314 -1.658857,1.057293 -0.638021,0.230903 -1.443146,0.346355 -2.415369,0.346355 h -1.80469 v 5.058603 H 45.806208 V 43.459199 h 3.682298 c 0.814237,0 1.503909,0.06988 2.069014,0.209636 0.565105,0.133681 1.066409,0.346355 1.503909,0.638022 0.516493,0.346354 0.914499,0.77778 1.194013,1.294273 0.28559,0.516493 0.428386,1.169708 0.428386,1.959639 z m -1.877608,0.04557 c 0,-0.467882 -0.08203,-0.875002 -0.246094,-1.221357 -0.164063,-0.346354 -0.413195,-0.628907 -0.747397,-0.847657 -0.291667,-0.188368 -0.62587,-0.32205 -1.002606,-0.401043 -0.37066,-0.08507 -0.841582,-0.127604 -1.412763,-0.127604 h -1.786461 v 5.423187 h 1.522138 c 0.729167,0 1.321617,-0.0638 1.777347,-0.191407 0.45573,-0.133681 0.826391,-0.343317 1.111981,-0.628907 0.28559,-0.291667 0.486112,-0.598526 0.601563,-0.920575 0.121528,-0.322049 0.182292,-0.683595 0.182292,-1.084637 z"
             id="path1609" />
        </g>
      </g>
    </g>
  </g>
</svg>
