<?xml version="1.0" encoding="UTF-8" standalone="no"?>
<!-- Created with Inkscape (http://www.inkscape.org/) -->

<svg
   width="65"
   height="65"
   viewBox="0 0 65 65"
   version="1.1"
   id="svg12"
   inkscape:version="1.2.2 (732a01da63, 2022-12-09)"
   sodipodi:docname="settings_icon.svg"
   inkscape:export-filename="settings_icon.png"
   inkscape:export-xdpi="96"
   inkscape:export-ydpi="96"
   xmlns:inkscape="http://www.inkscape.org/namespaces/inkscape"
   xmlns:sodipodi="http://sodipodi.sourceforge.net/DTD/sodipodi-0.dtd"
   xmlns="http://www.w3.org/2000/svg"
   xmlns:svg="http://www.w3.org/2000/svg">
  <sodipodi:namedview
     id="namedview14"
     pagecolor="#ffffff"
     bordercolor="#000000"
     borderopacity="0.25"
     inkscape:showpageshadow="2"
     inkscape:pageopacity="0.0"
     inkscape:pagecheckerboard="false"
     inkscape:deskcolor="#d1d1d1"
     inkscape:document-units="px"
     showgrid="false"
     showguides="true"
     inkscape:zoom="11.313709"
     inkscape:cx="10.208854"
     inkscape:cy="32.659494"
     inkscape:window-width="1920"
     inkscape:window-height="1001"
     inkscape:window-x="-9"
     inkscape:window-y="-9"
     inkscape:window-maximized="1"
     inkscape:current-layer="layer1" />
  <defs
     id="defs9" />
  <g
     inkscape:label="Layer 1"
     inkscape:groupmode="layer"
     id="layer1">
    <path
       id="path1170"
       style="fill:#ff7f2a;stroke:#000000"
       d="M 15.244131,0.49412911 C 6.9918609,0.49998881 0.49998975,6.9918599 0.49413038,15.244129 l -3.8e-7,34.51186 c 0.00586,8.247779 6.4977309,14.744 14.750001,14.749855 l 34.511718,2.2e-5 c 8.25227,-0.0059 14.744141,-6.497607 14.750001,-14.749877 l 2e-5,-34.511859 C 64.49999,6.9918599 58.008119,0.49998881 49.755849,0.49412946 Z"
       sodipodi:nodetypes="ccccccccc" />
    <path
       id="path397"
       style="fill:#808080;stroke:#000000;stroke-width:1;stroke-dasharray:none"
       d="m 29.875263,6.7499915 -2,4.9453115 c 0.02636,0.01374 0.05354,0.02399 0.08008,0.03711 a 21.3125,21.3125 0 0 0 -3.818359,1.197266 c 0.01388,-0.01783 0.02702,-0.03271 0.04101,-0.05078 l -4.49414,-2.865234 -4.275391,3.048828 1.228516,5.205078 c 0.01325,-0.0022 0.02587,-0.0055 0.03906,-0.0078 a 21.3125,21.3125 0 0 0 -2.357422,3.179687 c -0.0082,-0.0066 -0.01513,-0.01286 -0.02344,-0.01953 l -5.2832032,0.205078 -1.7109376,4.964844 4.0214848,3.523437 c 0.01209,-0.0011 0.02313,-0.0028 0.03516,-0.0039 a 21.3125,21.3125 0 0 0 -0.169922,2.390625 21.3125,21.3125 0 0 0 0.101562,1.431641 c -0.01786,-0.0011 -0.03468,-0.003 -0.05273,-0.0039 l -4.1855468,3.294922 1.4765626,5.03711 5.3398442,0.58789 c 0.01384,-0.01348 0.02547,-0.02755 0.03906,-0.04102 a 21.3125,21.3125 0 0 0 2.125,3.167968 c -0.01503,5.28e-4 -0.02987,-6.29e-4 -0.04492,0 l -1.40625,5.201172 4.136719,3.232422 4.597656,-2.675781 c 1.5e-4,-0.0092 -9.3e-5,-0.0182 0,-0.02734 a 21.3125,21.3125 0 0 0 4.576172,1.546875 c -0.01433,0.01592 -0.0286,0.03068 -0.04297,0.04687 l 2.027336,4.951172 h 5.25 l 1.980469,-4.941406 c -0.01596,-0.01614 -0.03105,-0.02905 -0.04687,-0.04492 a 21.3125,21.3125 0 0 0 4.585937,-1.53711 c 0.0012,0.008 0.0027,0.01542 0.0039,0.02344 l 4.636718,2.658203 4.136719,-3.232422 -1.513672,-5.074219 c -0.01063,-0.0017 -0.02066,-0.0022 -0.03125,-0.0039 a 21.3125,21.3125 0 0 0 2.232422,-3.320312 c 0.0147,0.01117 0.02806,0.02203 0.04297,0.0332 l 5.320312,-0.550781 1.476563,-5.03711 -4.181641,-3.326172 c -0.01863,-4.13e-4 -0.03624,2.83e-4 -0.05469,0 a 21.3125,21.3125 0 0 0 0.09961,-1.396484 21.3125,21.3125 0 0 0 -0.144531,-2.427734 c 0.0021,3.71e-4 0.0038,0.0016 0.0059,0.002 l 4.025391,-3.484375 -1.710938,-4.964844 -5.269531,-0.183594 c -6.07e-4,1.93e-4 -0.0013,-1.93e-4 -0.002,0 a 21.3125,21.3125 0 0 0 -2.361328,-3.179687 c 0.0014,1.53e-4 0.0025,-1.53e-4 0.0039,0 l 1.232422,-5.199219 -4.275391,-3.048828 -4.492187,2.867187 c -2.52e-4,0.0013 2.5e-4,0.0026 0,0.0039 a 21.3125,21.3125 0 0 0 -3.714844,-1.185547 c 0.0053,-0.0013 0.01034,-0.0026 0.01563,-0.0039 l -2,-4.9453115 z m 2.625,15.6503905 A 10.098537,10.098537 0 0 1 42.599872,32.499991 10.098537,10.098537 0 0 1 32.500263,42.5996 10.098537,10.098537 0 0 1 22.400654,32.499991 10.098537,10.098537 0 0 1 32.500263,22.400382 Z" />
  </g>
</svg>
